<svg width="939" height="299" viewBox="0 0 939 299" fill="none" xmlns="http://www.w3.org/2000/svg">
<circle cx="36.5" cy="2.5" r="2.5" fill="#E6E6E6"/>
<circle cx="36.5" cy="52.5" r="2.5" fill="#E6E6E6"/>
<circle cx="36.5" cy="102.5" r="2.5" fill="#E6E6E6"/>
<circle cx="36.5" cy="152.5" r="2.5" fill="#E6E6E6"/>
<circle cx="36.5" cy="202.5" r="2.5" fill="#E6E6E6"/>
<circle cx="36.5" cy="252.5" r="2.5" fill="#E6E6E6"/>
<circle cx="86.5" cy="2.5" r="2.5" fill="#E6E6E6"/>
<circle cx="86.5" cy="52.5" r="2.5" fill="#E6E6E6"/>
<circle cx="86.5" cy="102.5" r="2.5" fill="#E6E6E6"/>
<circle cx="86.5" cy="152.5" r="2.5" fill="#E6E6E6"/>
<circle cx="86.5" cy="202.5" r="2.5" fill="#E6E6E6"/>
<circle cx="86.5" cy="252.5" r="2.5" fill="#E6E6E6"/>
<circle cx="136.5" cy="2.5" r="2.5" fill="#E6E6E6"/>
<circle cx="136.5" cy="52.5" r="2.5" fill="#E6E6E6"/>
<circle cx="136.5" cy="102.5" r="2.5" fill="#E6E6E6"/>
<circle cx="136.5" cy="152.5" r="2.5" fill="#E6E6E6"/>
<circle cx="136.5" cy="202.5" r="2.5" fill="#E6E6E6"/>
<circle cx="136.5" cy="252.5" r="2.5" fill="#E6E6E6"/>
<circle cx="186.5" cy="2.5" r="2.5" fill="#E6E6E6"/>
<circle cx="186.5" cy="52.5" r="2.5" fill="#E6E6E6"/>
<circle cx="186.5" cy="102.5" r="2.5" fill="#E6E6E6"/>
<circle cx="186.5" cy="152.5" r="2.5" fill="#E6E6E6"/>
<circle cx="186.5" cy="202.5" r="2.5" fill="#E6E6E6"/>
<circle cx="186.5" cy="252.5" r="2.5" fill="#E6E6E6"/>
<circle cx="236.5" cy="2.5" r="2.5" fill="#E6E6E6"/>
<circle cx="236.5" cy="52.5" r="2.5" fill="#E6E6E6"/>
<circle cx="236.5" cy="102.5" r="2.5" fill="#E6E6E6"/>
<circle cx="236.5" cy="152.5" r="2.5" fill="#E6E6E6"/>
<circle cx="236.5" cy="202.5" r="2.5" fill="#E6E6E6"/>
<circle cx="236.5" cy="252.5" r="2.5" fill="#E6E6E6"/>
<circle cx="286.5" cy="2.5" r="2.5" fill="#E6E6E6"/>
<circle cx="286.5" cy="52.5" r="2.5" fill="#E6E6E6"/>
<circle cx="286.5" cy="102.5" r="2.5" fill="#E6E6E6"/>
<circle cx="286.5" cy="152.5" r="2.5" fill="#E6E6E6"/>
<circle cx="286.5" cy="202.5" r="2.5" fill="#E6E6E6"/>
<circle cx="286.5" cy="252.5" r="2.5" fill="#E6E6E6"/>
<circle cx="336.5" cy="2.5" r="2.5" fill="#E6E6E6"/>
<circle cx="336.5" cy="52.5" r="2.5" fill="#E6E6E6"/>
<circle cx="336.5" cy="102.5" r="2.5" fill="#E6E6E6"/>
<circle cx="336.5" cy="152.5" r="2.5" fill="#E6E6E6"/>
<circle cx="336.5" cy="202.5" r="2.5" fill="#E6E6E6"/>
<circle cx="336.5" cy="252.5" r="2.5" fill="#E6E6E6"/>
<circle cx="386.5" cy="2.5" r="2.5" fill="#E6E6E6"/>
<circle cx="386.5" cy="52.5" r="2.5" fill="#E6E6E6"/>
<circle cx="386.5" cy="102.5" r="2.5" fill="#E6E6E6"/>
<circle cx="386.5" cy="152.5" r="2.5" fill="#E6E6E6"/>
<circle cx="386.5" cy="202.5" r="2.5" fill="#E6E6E6"/>
<circle cx="386.5" cy="252.5" r="2.5" fill="#E6E6E6"/>
<circle cx="436.5" cy="2.5" r="2.5" fill="#E6E6E6"/>
<circle cx="436.5" cy="52.5" r="2.5" fill="#E6E6E6"/>
<circle cx="436.5" cy="102.5" r="2.5" fill="#E6E6E6"/>
<circle cx="436.5" cy="152.5" r="2.5" fill="#E6E6E6"/>
<circle cx="436.5" cy="202.5" r="2.5" fill="#E6E6E6"/>
<circle cx="436.5" cy="252.5" r="2.5" fill="#E6E6E6"/>
<circle cx="486.5" cy="2.5" r="2.5" fill="#E6E6E6"/>
<circle cx="486.5" cy="52.5" r="2.5" fill="#E6E6E6"/>
<circle cx="486.5" cy="102.5" r="2.5" fill="#E6E6E6"/>
<circle cx="486.5" cy="152.5" r="2.5" fill="#E6E6E6"/>
<circle cx="486.5" cy="202.5" r="2.5" fill="#E6E6E6"/>
<circle cx="486.5" cy="252.5" r="2.5" fill="#E6E6E6"/>
<circle cx="536.5" cy="2.5" r="2.5" fill="#E6E6E6"/>
<circle cx="536.5" cy="52.5" r="2.5" fill="#E6E6E6"/>
<circle cx="536.5" cy="102.5" r="2.5" fill="#E6E6E6"/>
<circle cx="536.5" cy="152.5" r="2.5" fill="#E6E6E6"/>
<circle cx="536.5" cy="202.5" r="2.5" fill="#E6E6E6"/>
<circle cx="536.5" cy="252.5" r="2.5" fill="#E6E6E6"/>
<circle cx="586.5" cy="2.5" r="2.5" fill="#E6E6E6"/>
<circle cx="586.5" cy="52.5" r="2.5" fill="#E6E6E6"/>
<circle cx="586.5" cy="102.5" r="2.5" fill="#E6E6E6"/>
<circle cx="586.5" cy="152.5" r="2.5" fill="#E6E6E6"/>
<circle cx="586.5" cy="202.5" r="2.5" fill="#E6E6E6"/>
<circle cx="586.5" cy="252.5" r="2.5" fill="#E6E6E6"/>
<circle cx="636.5" cy="2.5" r="2.5" fill="#E6E6E6"/>
<circle cx="636.5" cy="52.5" r="2.5" fill="#E6E6E6"/>
<circle cx="636.5" cy="102.5" r="2.5" fill="#E6E6E6"/>
<circle cx="636.5" cy="152.5" r="2.5" fill="#E6E6E6"/>
<circle cx="636.5" cy="202.5" r="2.5" fill="#E6E6E6"/>
<circle cx="636.5" cy="252.5" r="2.5" fill="#E6E6E6"/>
<circle cx="686.5" cy="2.5" r="2.5" fill="#E6E6E6"/>
<circle cx="686.5" cy="52.5" r="2.5" fill="#E6E6E6"/>
<circle cx="686.5" cy="102.5" r="2.5" fill="#E6E6E6"/>
<circle cx="686.5" cy="152.5" r="2.5" fill="#E6E6E6"/>
<circle cx="686.5" cy="202.5" r="2.5" fill="#E6E6E6"/>
<circle cx="686.5" cy="252.5" r="2.5" fill="#E6E6E6"/>
<circle cx="736.5" cy="2.5" r="2.5" fill="#E6E6E6"/>
<circle cx="736.5" cy="52.5" r="2.5" fill="#E6E6E6"/>
<circle cx="736.5" cy="102.5" r="2.5" fill="#E6E6E6"/>
<circle cx="736.5" cy="152.5" r="2.5" fill="#E6E6E6"/>
<circle cx="736.5" cy="202.5" r="2.5" fill="#E6E6E6"/>
<circle cx="736.5" cy="252.5" r="2.5" fill="#E6E6E6"/>
<circle cx="786.5" cy="2.5" r="2.5" fill="#E6E6E6"/>
<circle cx="786.5" cy="52.5" r="2.5" fill="#E6E6E6"/>
<circle cx="786.5" cy="102.5" r="2.5" fill="#E6E6E6"/>
<circle cx="786.5" cy="152.5" r="2.5" fill="#E6E6E6"/>
<circle cx="786.5" cy="202.5" r="2.5" fill="#E6E6E6"/>
<circle cx="786.5" cy="252.5" r="2.5" fill="#E6E6E6"/>
<circle cx="836.5" cy="2.5" r="2.5" fill="#E6E6E6"/>
<circle cx="836.5" cy="52.5" r="2.5" fill="#E6E6E6"/>
<circle cx="836.5" cy="102.5" r="2.5" fill="#E6E6E6"/>
<circle cx="836.5" cy="152.5" r="2.5" fill="#E6E6E6"/>
<circle cx="836.5" cy="202.5" r="2.5" fill="#E6E6E6"/>
<circle cx="836.5" cy="252.5" r="2.5" fill="#E6E6E6"/>
<circle cx="886.5" cy="2.5" r="2.5" fill="#E6E6E6"/>
<circle cx="886.5" cy="52.5" r="2.5" fill="#E6E6E6"/>
<circle cx="886.5" cy="102.5" r="2.5" fill="#E6E6E6"/>
<circle cx="886.5" cy="152.5" r="2.5" fill="#E6E6E6"/>
<circle cx="886.5" cy="202.5" r="2.5" fill="#E6E6E6"/>
<circle cx="886.5" cy="252.5" r="2.5" fill="#E6E6E6"/>
<circle cx="936.5" cy="2.5" r="2.5" fill="#E6E6E6"/>
<circle cx="936.5" cy="52.5" r="2.5" fill="#E6E6E6"/>
<circle cx="936.5" cy="102.5" r="2.5" fill="#E6E6E6"/>
<circle cx="936.5" cy="152.5" r="2.5" fill="#E6E6E6"/>
<circle cx="936.5" cy="202.5" r="2.5" fill="#E6E6E6"/>
<circle cx="936.5" cy="252.5" r="2.5" fill="#E6E6E6"/>
</svg>
